<svg xmlns="http://www.w3.org/2000/svg" xmlns:xlink="http://www.w3.org/1999/xlink" width="810" zoomAndPan="magnify" viewBox="0 0 810 809.999993" height="809.999993" preserveAspectRatio="xMidYMid meet" version="1.0"><defs><clipPath id="id1"><path d="M 15.246094 15.246094 L 795.996094 15.246094 L 795.996094 795.996094 L 15.246094 795.996094 Z M 15.246094 15.246094 " clip-rule="nonzero"/></clipPath></defs><path fill="rgb(40.779114%, 73.728943%, 25.099182%)" d="M 432.53125 163.109375 C 432.53125 148.242188 420.476562 136.1875 405.609375 136.1875 C 390.742188 136.1875 378.6875 148.242188 378.6875 163.109375 C 378.6875 177.976562 390.742188 190.03125 405.609375 190.03125 C 420.476562 190.03125 432.53125 177.976562 432.53125 163.109375 " fill-opacity="1" fill-rule="nonzero"/><path fill="rgb(40.779114%, 73.728943%, 25.099182%)" d="M 307.773438 182.113281 C 300.339844 169.234375 283.875 164.824219 270.996094 172.257812 C 258.121094 179.691406 253.710938 196.160156 261.144531 209.035156 C 268.578125 221.910156 285.042969 226.320312 297.917969 218.886719 C 310.796875 211.453125 315.207031 194.988281 307.773438 182.113281 " fill-opacity="1" fill-rule="nonzero"/><path fill="rgb(40.779114%, 73.728943%, 25.099182%)" d="M 209.230469 260.945312 C 196.355469 253.511719 179.890625 257.921875 172.457031 270.800781 C 165.023438 283.675781 169.433594 300.140625 182.308594 307.574219 C 195.183594 315.007812 211.652344 310.597656 219.085938 297.722656 C 226.519531 284.847656 222.109375 268.382812 209.230469 260.945312 " fill-opacity="1" fill-rule="nonzero"/><path fill="rgb(40.779114%, 73.728943%, 25.099182%)" d="M 163.308594 378.488281 C 148.4375 378.488281 136.386719 390.542969 136.386719 405.410156 C 136.386719 420.28125 148.4375 432.335938 163.308594 432.335938 C 178.175781 432.335938 190.230469 420.28125 190.230469 405.410156 C 190.230469 390.542969 178.175781 378.488281 163.308594 378.488281 " fill-opacity="1" fill-rule="nonzero"/><path fill="rgb(40.779114%, 73.728943%, 25.099182%)" d="M 182.308594 503.25 C 169.433594 510.683594 165.023438 527.148438 172.457031 540.023438 C 179.890625 552.898438 196.355469 557.308594 209.230469 549.875 C 222.109375 542.441406 226.519531 525.976562 219.085938 513.101562 C 211.652344 500.226562 195.183594 495.816406 182.308594 503.25 " fill-opacity="1" fill-rule="nonzero"/><path fill="rgb(40.779114%, 73.728943%, 25.099182%)" d="M 261.144531 601.789062 C 253.710938 614.664062 258.121094 631.128906 270.996094 638.5625 C 283.875 645.996094 300.339844 641.585938 307.773438 628.710938 C 315.207031 615.835938 310.796875 599.371094 297.917969 591.9375 C 285.042969 584.503906 268.578125 588.914062 261.144531 601.789062 " fill-opacity="1" fill-rule="nonzero"/><path fill="rgb(40.779114%, 73.728943%, 25.099182%)" d="M 378.6875 647.714844 C 378.6875 662.582031 390.742188 674.636719 405.609375 674.636719 C 420.476562 674.636719 432.53125 662.582031 432.53125 647.714844 C 432.53125 632.84375 420.476562 620.792969 405.609375 620.792969 C 390.742188 620.792969 378.6875 632.84375 378.6875 647.714844 " fill-opacity="1" fill-rule="nonzero"/><path fill="rgb(40.779114%, 73.728943%, 25.099182%)" d="M 503.445312 628.710938 C 510.878906 641.585938 527.34375 645.996094 540.222656 638.5625 C 553.097656 631.128906 557.507812 614.664062 550.074219 601.789062 C 542.640625 588.914062 526.175781 584.503906 513.296875 591.9375 C 500.421875 599.371094 496.011719 615.835938 503.445312 628.710938 " fill-opacity="1" fill-rule="nonzero"/><path fill="rgb(40.779114%, 73.728943%, 25.099182%)" d="M 601.984375 549.875 C 614.863281 557.308594 631.328125 552.898438 638.769531 540.023438 C 646.203125 527.148438 641.785156 510.683594 628.910156 503.25 C 616.03125 495.816406 599.566406 500.226562 592.132812 513.101562 C 584.699219 525.976562 589.109375 542.441406 601.984375 549.875 " fill-opacity="1" fill-rule="nonzero"/><path fill="rgb(40.779114%, 73.728943%, 25.099182%)" d="M 647.910156 432.335938 C 662.777344 432.335938 674.832031 420.28125 674.832031 405.410156 C 674.832031 390.542969 662.777344 378.488281 647.910156 378.488281 C 633.042969 378.488281 620.988281 390.542969 620.988281 405.410156 C 620.988281 420.28125 633.042969 432.335938 647.910156 432.335938 " fill-opacity="1" fill-rule="nonzero"/><path fill="rgb(40.779114%, 73.728943%, 25.099182%)" d="M 628.910156 307.574219 C 641.785156 300.140625 646.203125 283.675781 638.769531 270.800781 C 631.328125 257.921875 614.863281 253.511719 601.984375 260.945312 C 589.109375 268.382812 584.699219 284.847656 592.132812 297.722656 C 599.566406 310.597656 616.03125 315.007812 628.910156 307.574219 " fill-opacity="1" fill-rule="nonzero"/><path fill="rgb(40.779114%, 73.728943%, 25.099182%)" d="M 550.074219 209.035156 C 557.507812 196.160156 553.097656 179.691406 540.222656 172.257812 C 527.34375 164.824219 510.878906 169.234375 503.445312 182.113281 C 496.011719 194.988281 500.421875 211.453125 513.296875 218.886719 C 526.175781 226.320312 542.640625 221.910156 550.074219 209.035156 " fill-opacity="1" fill-rule="nonzero"/><path fill="rgb(65.098572%, 78.039551%, 16.468811%)" d="M 580.605469 405.410156 C 580.605469 308.765625 502.257812 230.417969 405.609375 230.417969 C 308.960938 230.417969 230.613281 308.765625 230.613281 405.410156 C 230.613281 502.058594 308.960938 580.40625 405.609375 580.40625 C 502.257812 580.40625 580.605469 502.058594 580.605469 405.410156 " fill-opacity="1" fill-rule="nonzero"/><path fill="rgb(33.329773%, 64.309692%, 32.159424%)" d="M 540.222656 405.410156 C 540.222656 390.542969 528.167969 378.488281 513.296875 378.488281 C 498.429688 378.488281 486.375 390.542969 486.375 405.410156 C 486.375 420.28125 498.429688 432.335938 513.296875 432.335938 C 528.167969 432.335938 540.222656 420.28125 540.222656 405.410156 " fill-opacity="1" fill-rule="nonzero"/><path fill="rgb(33.329773%, 64.309692%, 32.159424%)" d="M 472.914062 288.835938 C 460.039062 281.402344 443.574219 285.8125 436.140625 298.6875 C 428.707031 311.566406 433.117188 328.03125 445.992188 335.464844 C 458.867188 342.898438 475.332031 338.488281 482.769531 325.609375 C 490.203125 312.734375 485.792969 296.269531 472.914062 288.835938 " fill-opacity="1" fill-rule="nonzero"/><path fill="rgb(33.329773%, 64.309692%, 32.159424%)" d="M 338.304688 288.835938 C 325.425781 296.269531 321.015625 312.734375 328.449219 325.609375 C 335.882812 338.488281 352.347656 342.898438 365.226562 335.464844 C 378.101562 328.03125 382.511719 311.566406 375.078125 298.6875 C 367.644531 285.8125 351.179688 281.402344 338.304688 288.835938 " fill-opacity="1" fill-rule="nonzero"/><path fill="rgb(33.329773%, 64.309692%, 32.159424%)" d="M 270.996094 405.410156 C 270.996094 420.28125 283.050781 432.335938 297.917969 432.335938 C 312.785156 432.335938 324.839844 420.28125 324.839844 405.410156 C 324.839844 390.542969 312.785156 378.488281 297.917969 378.488281 C 283.050781 378.488281 270.996094 390.542969 270.996094 405.410156 " fill-opacity="1" fill-rule="nonzero"/><path fill="rgb(33.329773%, 64.309692%, 32.159424%)" d="M 338.304688 521.988281 C 351.179688 529.421875 367.644531 525.011719 375.078125 512.136719 C 382.511719 499.257812 378.101562 482.792969 365.226562 475.359375 C 352.347656 467.925781 335.882812 472.335938 328.449219 485.210938 C 321.015625 498.089844 325.425781 514.554688 338.304688 521.988281 " fill-opacity="1" fill-rule="nonzero"/><path fill="rgb(33.329773%, 64.309692%, 32.159424%)" d="M 472.914062 521.988281 C 485.792969 514.554688 490.203125 498.089844 482.769531 485.210938 C 475.332031 472.335938 458.867188 467.925781 445.992188 475.359375 C 433.117188 482.792969 428.707031 499.257812 436.140625 512.136719 C 443.574219 525.011719 460.039062 529.421875 472.914062 521.988281 " fill-opacity="1" fill-rule="nonzero"/><path fill="rgb(40.779114%, 73.728943%, 25.099182%)" d="M 419.070312 243.878906 L 392.148438 243.878906 L 392.148438 190.03125 L 419.070312 190.03125 L 419.070312 243.878906 " fill-opacity="1" fill-rule="nonzero"/><path fill="rgb(65.098572%, 78.039551%, 16.468811%)" d="M 405.609375 149.648438 C 398.1875 149.648438 392.148438 155.6875 392.148438 163.109375 C 392.148438 170.53125 398.1875 176.570312 405.609375 176.570312 C 413.03125 176.570312 419.070312 170.53125 419.070312 163.109375 C 419.070312 155.6875 413.03125 149.648438 405.609375 149.648438 Z M 405.609375 203.492188 C 383.339844 203.492188 365.226562 185.378906 365.226562 163.109375 C 365.226562 140.839844 383.339844 122.726562 405.609375 122.726562 C 427.878906 122.726562 445.992188 140.839844 445.992188 163.109375 C 445.992188 185.378906 427.878906 203.492188 405.609375 203.492188 " fill-opacity="1" fill-rule="nonzero"/><path fill="rgb(40.779114%, 73.728943%, 25.099182%)" d="M 313.179688 272.246094 L 286.257812 225.617188 L 309.578125 212.15625 L 336.5 258.785156 L 313.179688 272.246094 " fill-opacity="1" fill-rule="nonzero"/><path fill="rgb(65.098572%, 78.039551%, 16.468811%)" d="M 284.4375 182.113281 C 282.152344 182.113281 279.84375 182.695312 277.726562 183.914062 C 271.300781 187.625 269.089844 195.875 272.796875 202.304688 C 274.597656 205.417969 277.503906 207.648438 280.972656 208.574219 C 284.445312 209.5 288.074219 209.027344 291.1875 207.234375 C 294.304688 205.433594 296.53125 202.527344 297.460938 199.058594 C 298.390625 195.585938 297.914062 191.957031 296.117188 188.84375 C 293.628906 184.53125 289.09375 182.113281 284.4375 182.113281 Z M 284.523438 235.976562 C 281.015625 235.976562 277.484375 235.511719 274.007812 234.582031 C 263.589844 231.789062 254.878906 225.105469 249.484375 215.765625 C 238.347656 196.480469 244.980469 171.734375 264.265625 160.597656 C 283.550781 149.464844 308.296875 156.097656 319.433594 175.382812 C 324.828125 184.722656 326.261719 195.605469 323.46875 206.023438 C 320.675781 216.441406 313.988281 225.152344 304.648438 230.546875 C 298.433594 234.136719 291.523438 235.976562 284.523438 235.976562 " fill-opacity="1" fill-rule="nonzero"/><path fill="rgb(40.779114%, 73.728943%, 25.099182%)" d="M 258.988281 336.304688 L 212.355469 309.382812 L 225.816406 286.0625 L 272.449219 312.984375 L 258.988281 336.304688 " fill-opacity="1" fill-rule="nonzero"/><path fill="rgb(65.098572%, 78.039551%, 16.468811%)" d="M 195.789062 270.804688 C 191.136719 270.804688 186.601562 273.21875 184.109375 277.53125 C 182.316406 280.644531 181.835938 284.273438 182.769531 287.746094 C 183.695312 291.222656 185.925781 294.121094 189.039062 295.921875 C 195.46875 299.628906 203.71875 297.417969 207.429688 290.992188 C 211.136719 284.5625 208.929688 276.3125 202.5 272.601562 C 200.382812 271.382812 198.078125 270.804688 195.789062 270.804688 Z M 195.703125 324.636719 C 188.855469 324.636719 181.921875 322.894531 175.578125 319.234375 C 166.238281 313.839844 159.554688 305.128906 156.761719 294.710938 C 153.96875 284.292969 155.40625 273.410156 160.796875 264.070312 C 171.929688 244.785156 196.675781 238.152344 215.960938 249.285156 C 235.246094 260.421875 241.878906 285.167969 230.746094 304.453125 C 223.269531 317.394531 209.671875 324.636719 195.703125 324.636719 " fill-opacity="1" fill-rule="nonzero"/><path fill="rgb(40.779114%, 73.728943%, 25.099182%)" d="M 244.074219 418.871094 L 190.230469 418.871094 L 190.230469 391.949219 L 244.074219 391.949219 L 244.074219 418.871094 " fill-opacity="1" fill-rule="nonzero"/><path fill="rgb(65.098572%, 78.039551%, 16.468811%)" d="M 163.308594 391.949219 C 155.886719 391.949219 149.847656 397.992188 149.847656 405.410156 C 149.847656 412.832031 155.886719 418.871094 163.308594 418.871094 C 170.726562 418.871094 176.769531 412.832031 176.769531 405.410156 C 176.769531 397.992188 170.726562 391.949219 163.308594 391.949219 Z M 163.308594 445.796875 C 141.039062 445.796875 122.921875 427.679688 122.921875 405.410156 C 122.921875 383.144531 141.039062 365.027344 163.308594 365.027344 C 185.574219 365.027344 203.691406 383.144531 203.691406 405.410156 C 203.691406 427.679688 185.574219 445.796875 163.308594 445.796875 " fill-opacity="1" fill-rule="nonzero"/><path fill="rgb(40.779114%, 73.728943%, 25.099182%)" d="M 225.816406 524.761719 L 212.355469 501.441406 L 258.988281 474.519531 L 272.449219 497.839844 L 225.816406 524.761719 " fill-opacity="1" fill-rule="nonzero"/><path fill="rgb(65.098572%, 78.039551%, 16.468811%)" d="M 195.746094 513.109375 C 193.464844 513.109375 191.15625 513.6875 189.039062 514.902344 C 185.925781 516.703125 183.695312 519.601562 182.769531 523.078125 C 181.835938 526.550781 182.316406 530.175781 184.109375 533.292969 C 187.824219 539.722656 196.074219 541.9375 202.5 538.222656 C 208.929688 534.507812 211.136719 526.261719 207.429688 519.832031 C 204.941406 515.519531 200.40625 513.109375 195.746094 513.109375 Z M 195.835938 566.941406 C 181.867188 566.941406 168.269531 559.695312 160.796875 546.753906 C 155.40625 537.414062 153.96875 526.53125 156.761719 516.113281 C 159.554688 505.695312 166.238281 496.984375 175.578125 491.589844 C 194.855469 480.460938 219.609375 487.085938 230.746094 506.371094 C 241.878906 525.65625 235.246094 550.402344 215.960938 561.535156 C 209.621094 565.199219 202.683594 566.941406 195.835938 566.941406 " fill-opacity="1" fill-rule="nonzero"/><path fill="rgb(40.779114%, 73.728943%, 25.099182%)" d="M 309.578125 598.667969 L 286.257812 585.207031 L 313.179688 538.578125 L 336.5 552.039062 L 309.578125 598.667969 " fill-opacity="1" fill-rule="nonzero"/><path fill="rgb(65.098572%, 78.039551%, 16.468811%)" d="M 284.476562 601.78125 C 283.3125 601.78125 282.132812 601.941406 280.972656 602.25 C 277.503906 603.175781 274.597656 605.402344 272.796875 608.519531 C 269.089844 614.949219 271.300781 623.195312 277.726562 626.910156 C 284.15625 630.617188 292.40625 628.410156 296.117188 621.980469 C 297.914062 618.863281 298.390625 615.238281 297.460938 611.765625 C 296.53125 608.296875 294.304688 605.390625 291.1875 603.597656 C 289.117188 602.394531 286.8125 601.78125 284.476562 601.78125 Z M 284.390625 655.628906 C 277.542969 655.628906 270.609375 653.886719 264.265625 650.222656 C 244.980469 639.089844 238.347656 614.34375 249.484375 595.058594 C 254.878906 585.71875 263.589844 579.035156 274.007812 576.242188 C 284.425781 573.453125 295.308594 574.886719 304.648438 580.28125 C 313.988281 585.671875 320.675781 594.382812 323.46875 604.800781 C 326.261719 615.21875 324.828125 626.101562 319.433594 635.441406 C 311.957031 648.382812 298.359375 655.628906 284.390625 655.628906 " fill-opacity="1" fill-rule="nonzero"/><path fill="rgb(40.779114%, 73.728943%, 25.099182%)" d="M 419.070312 620.792969 L 392.148438 620.792969 L 392.148438 566.945312 L 419.070312 566.945312 L 419.070312 620.792969 " fill-opacity="1" fill-rule="nonzero"/><path fill="rgb(65.098572%, 78.039551%, 16.468811%)" d="M 405.609375 634.253906 C 398.1875 634.253906 392.148438 640.292969 392.148438 647.714844 C 392.148438 655.132812 398.1875 661.175781 405.609375 661.175781 C 413.03125 661.175781 419.070312 655.132812 419.070312 647.714844 C 419.070312 640.292969 413.03125 634.253906 405.609375 634.253906 Z M 405.609375 688.097656 C 383.339844 688.097656 365.226562 669.980469 365.226562 647.714844 C 365.226562 625.445312 383.339844 607.328125 405.609375 607.328125 C 427.878906 607.328125 445.992188 625.445312 445.992188 647.714844 C 445.992188 669.980469 427.878906 688.097656 405.609375 688.097656 " fill-opacity="1" fill-rule="nonzero"/><path fill="rgb(40.779114%, 73.728943%, 25.099182%)" d="M 501.636719 598.667969 L 474.714844 552.039062 L 498.035156 538.578125 L 524.957031 585.207031 L 501.636719 598.667969 " fill-opacity="1" fill-rule="nonzero"/><path fill="rgb(65.098572%, 78.039551%, 16.468811%)" d="M 515.097656 621.980469 C 518.8125 628.410156 527.0625 630.625 533.492188 626.910156 C 539.917969 623.195312 542.128906 614.949219 538.421875 608.519531 C 536.617188 605.402344 533.71875 603.175781 530.242188 602.25 C 526.773438 601.316406 523.144531 601.796875 520.027344 603.589844 C 516.914062 605.390625 514.683594 608.296875 513.757812 611.765625 C 512.824219 615.238281 513.304688 618.863281 515.097656 621.980469 Z M 526.824219 655.628906 C 512.859375 655.628906 499.257812 648.382812 491.785156 635.441406 C 486.394531 626.101562 484.964844 615.21875 487.757812 604.800781 C 490.542969 594.382812 497.226562 585.671875 506.566406 580.277344 C 515.90625 574.886719 526.792969 573.453125 537.210938 576.242188 C 547.628906 579.035156 556.335938 585.71875 561.734375 595.058594 C 572.867188 614.34375 566.238281 639.089844 546.953125 650.222656 C 540.609375 653.886719 533.675781 655.628906 526.824219 655.628906 " fill-opacity="1" fill-rule="nonzero"/><path fill="rgb(40.779114%, 73.728943%, 25.099182%)" d="M 585.402344 524.761719 L 538.773438 497.839844 L 552.234375 474.519531 L 598.863281 501.441406 L 585.402344 524.761719 " fill-opacity="1" fill-rule="nonzero"/><path fill="rgb(65.098572%, 78.039551%, 16.468811%)" d="M 608.714844 538.222656 C 615.144531 541.929688 623.394531 539.722656 627.109375 533.292969 C 628.902344 530.175781 629.382812 526.550781 628.453125 523.078125 C 627.523438 519.601562 625.292969 516.703125 622.179688 514.902344 C 615.75 511.1875 607.5 513.402344 603.792969 519.832031 C 600.078125 526.261719 602.289062 534.507812 608.714844 538.222656 Z M 615.382812 566.941406 C 608.53125 566.941406 601.605469 565.199219 595.253906 561.535156 C 575.972656 550.402344 569.34375 525.65625 580.472656 506.371094 C 591.609375 487.085938 616.355469 480.460938 635.640625 491.589844 C 644.984375 496.984375 651.664062 505.695312 654.457031 516.113281 C 657.25 526.53125 655.816406 537.414062 650.421875 546.753906 C 642.953125 559.695312 629.347656 566.941406 615.382812 566.941406 " fill-opacity="1" fill-rule="nonzero"/><path fill="rgb(40.779114%, 73.728943%, 25.099182%)" d="M 620.988281 418.871094 L 567.144531 418.871094 L 567.144531 391.949219 L 620.988281 391.949219 L 620.988281 418.871094 " fill-opacity="1" fill-rule="nonzero"/><path fill="rgb(65.098572%, 78.039551%, 16.468811%)" d="M 647.910156 391.949219 C 640.488281 391.949219 634.449219 397.992188 634.449219 405.410156 C 634.449219 412.832031 640.488281 418.871094 647.910156 418.871094 C 655.332031 418.871094 661.371094 412.832031 661.371094 405.410156 C 661.371094 397.992188 655.332031 391.949219 647.910156 391.949219 Z M 647.910156 445.796875 C 625.640625 445.796875 607.527344 427.679688 607.527344 405.410156 C 607.527344 383.144531 625.640625 365.027344 647.910156 365.027344 C 670.179688 365.027344 688.292969 383.144531 688.292969 405.410156 C 688.292969 427.679688 670.179688 445.796875 647.910156 445.796875 " fill-opacity="1" fill-rule="nonzero"/><path fill="rgb(40.779114%, 73.728943%, 25.099182%)" d="M 552.234375 336.304688 L 538.773438 312.984375 L 585.402344 286.0625 L 598.863281 309.382812 L 552.234375 336.304688 " fill-opacity="1" fill-rule="nonzero"/><path fill="rgb(65.098572%, 78.039551%, 16.468811%)" d="M 615.425781 270.804688 C 613.140625 270.804688 610.832031 271.382812 608.714844 272.601562 C 602.289062 276.3125 600.078125 284.5625 603.792969 290.992188 C 607.5 297.417969 615.75 299.628906 622.179688 295.921875 C 625.292969 294.121094 627.523438 291.222656 628.453125 287.746094 C 629.382812 284.273438 628.902344 280.644531 627.109375 277.53125 C 624.617188 273.21875 620.082031 270.804688 615.425781 270.804688 Z M 615.519531 324.636719 C 601.550781 324.636719 587.945312 317.394531 580.472656 304.453125 C 569.34375 285.167969 575.972656 260.421875 595.253906 249.285156 C 614.546875 238.160156 639.285156 244.785156 650.421875 264.070312 C 655.816406 273.410156 657.25 284.292969 654.457031 294.710938 C 651.664062 305.128906 644.984375 313.839844 635.640625 319.234375 C 629.296875 322.894531 622.363281 324.636719 615.519531 324.636719 " fill-opacity="1" fill-rule="nonzero"/><path fill="rgb(40.779114%, 73.728943%, 25.099182%)" d="M 498.035156 272.246094 L 474.714844 258.785156 L 501.636719 212.15625 L 524.957031 225.617188 L 498.035156 272.246094 " fill-opacity="1" fill-rule="nonzero"/><path fill="rgb(65.098572%, 78.039551%, 16.468811%)" d="M 526.785156 182.113281 C 522.125 182.113281 517.589844 184.53125 515.097656 188.84375 C 513.304688 191.957031 512.824219 195.585938 513.757812 199.058594 C 514.683594 202.527344 516.914062 205.433594 520.027344 207.226562 C 523.144531 209.027344 526.773438 209.5 530.242188 208.574219 C 533.71875 207.648438 536.617188 205.417969 538.421875 202.304688 C 542.128906 195.875 539.917969 187.625 533.492188 183.914062 C 531.375 182.695312 529.066406 182.113281 526.785156 182.113281 Z M 526.695312 235.976562 C 519.699219 235.976562 512.792969 234.136719 506.566406 230.539062 C 497.226562 225.152344 490.542969 216.441406 487.757812 206.023438 C 484.964844 195.605469 486.394531 184.722656 491.785156 175.382812 C 502.921875 156.097656 527.667969 149.472656 546.953125 160.597656 C 566.238281 171.734375 572.867188 196.480469 561.734375 215.765625 C 556.335938 225.105469 547.628906 231.789062 537.210938 234.582031 C 533.734375 235.511719 530.203125 235.976562 526.695312 235.976562 " fill-opacity="1" fill-rule="nonzero"/><path fill="rgb(33.329773%, 64.309692%, 32.159424%)" d="M 405.609375 391.949219 C 398.1875 391.949219 392.148438 397.992188 392.148438 405.410156 C 392.148438 412.832031 398.1875 418.871094 405.609375 418.871094 C 413.03125 418.871094 419.070312 412.832031 419.070312 405.410156 C 419.070312 397.992188 413.03125 391.949219 405.609375 391.949219 Z M 405.609375 445.796875 C 383.339844 445.796875 365.226562 427.679688 365.226562 405.410156 C 365.226562 383.144531 383.339844 365.027344 405.609375 365.027344 C 427.878906 365.027344 445.992188 383.144531 445.992188 405.410156 C 445.992188 427.679688 427.878906 445.796875 405.609375 445.796875 " fill-opacity="1" fill-rule="nonzero"/><path fill="rgb(33.329773%, 64.309692%, 32.159424%)" d="M 486.375 418.871094 L 459.453125 418.871094 L 459.453125 391.949219 L 486.375 391.949219 L 486.375 418.871094 " fill-opacity="1" fill-rule="nonzero"/><path fill="rgb(40.779114%, 73.728943%, 25.099182%)" d="M 513.296875 391.949219 C 505.878906 391.949219 499.835938 397.992188 499.835938 405.410156 C 499.835938 412.832031 505.878906 418.871094 513.296875 418.871094 C 520.71875 418.871094 526.761719 412.832031 526.761719 405.410156 C 526.761719 397.992188 520.71875 391.949219 513.296875 391.949219 Z M 513.296875 445.796875 C 491.03125 445.796875 472.914062 427.679688 472.914062 405.410156 C 472.914062 383.144531 491.03125 365.027344 513.296875 365.027344 C 535.566406 365.027344 553.683594 383.144531 553.683594 405.410156 C 553.683594 427.679688 535.566406 445.796875 513.296875 445.796875 " fill-opacity="1" fill-rule="nonzero"/><path fill="rgb(33.329773%, 64.309692%, 32.159424%)" d="M 444.191406 365.507812 L 420.871094 352.046875 L 434.332031 328.734375 L 457.652344 342.195312 L 444.191406 365.507812 " fill-opacity="1" fill-rule="nonzero"/><path fill="rgb(40.779114%, 73.728943%, 25.099182%)" d="M 459.480469 298.6875 C 454.820312 298.6875 450.285156 301.105469 447.792969 305.417969 C 446 308.535156 445.519531 312.164062 446.453125 315.632812 C 447.378906 319.109375 449.609375 322.007812 452.722656 323.808594 C 459.152344 327.515625 467.398438 325.308594 471.113281 318.878906 C 474.820312 312.453125 472.613281 304.203125 466.183594 300.488281 C 464.066406 299.273438 461.761719 298.6875 459.480469 298.6875 Z M 459.386719 352.527344 C 452.539062 352.527344 445.605469 350.785156 439.261719 347.125 C 429.921875 341.726562 423.238281 333.023438 420.449219 322.601562 C 417.65625 312.183594 419.089844 301.296875 424.480469 291.957031 C 435.613281 272.671875 460.359375 266.046875 479.644531 277.175781 C 498.929688 288.308594 505.5625 313.054688 494.429688 332.339844 C 486.953125 345.285156 473.355469 352.527344 459.386719 352.527344 " fill-opacity="1" fill-rule="nonzero"/><path fill="rgb(33.329773%, 64.309692%, 32.159424%)" d="M 367.027344 365.507812 L 353.566406 342.195312 L 376.886719 328.734375 L 390.347656 352.046875 L 367.027344 365.507812 " fill-opacity="1" fill-rule="nonzero"/><path fill="rgb(40.779114%, 73.728943%, 25.099182%)" d="M 345.035156 300.488281 C 338.605469 304.203125 336.398438 312.453125 340.105469 318.878906 C 343.816406 325.308594 352.066406 327.523438 358.496094 323.808594 C 361.609375 322.007812 363.839844 319.109375 364.765625 315.632812 C 365.699219 312.164062 365.21875 308.535156 363.425781 305.417969 C 359.710938 298.992188 351.460938 296.78125 345.035156 300.488281 Z M 351.828125 352.527344 C 337.863281 352.527344 324.261719 345.285156 316.789062 332.339844 C 305.65625 313.054688 312.289062 288.308594 331.574219 277.175781 C 350.855469 266.046875 375.605469 272.671875 386.738281 291.957031 C 392.132812 301.296875 393.566406 312.183594 390.773438 322.601562 C 387.980469 333.023438 381.296875 341.726562 371.957031 347.125 C 365.613281 350.785156 358.679688 352.527344 351.828125 352.527344 " fill-opacity="1" fill-rule="nonzero"/><path fill="rgb(33.329773%, 64.309692%, 32.159424%)" d="M 351.765625 418.871094 L 324.839844 418.871094 L 324.839844 391.949219 L 351.765625 391.949219 L 351.765625 418.871094 " fill-opacity="1" fill-rule="nonzero"/><path fill="rgb(40.779114%, 73.728943%, 25.099182%)" d="M 297.917969 391.949219 C 290.5 391.949219 284.457031 397.992188 284.457031 405.410156 C 284.457031 412.832031 290.5 418.871094 297.917969 418.871094 C 305.339844 418.871094 311.378906 412.832031 311.378906 405.410156 C 311.378906 397.992188 305.339844 391.949219 297.917969 391.949219 Z M 297.917969 445.796875 C 275.652344 445.796875 257.535156 427.679688 257.535156 405.410156 C 257.535156 383.144531 275.652344 365.027344 297.917969 365.027344 C 320.1875 365.027344 338.304688 383.144531 338.304688 405.410156 C 338.304688 427.679688 320.1875 445.796875 297.917969 445.796875 " fill-opacity="1" fill-rule="nonzero"/><path fill="rgb(33.329773%, 64.309692%, 32.159424%)" d="M 376.886719 482.089844 L 353.566406 468.628906 L 367.027344 445.316406 L 390.347656 458.777344 L 376.886719 482.089844 " fill-opacity="1" fill-rule="nonzero"/><path fill="rgb(40.779114%, 73.728943%, 25.099182%)" d="M 345.035156 510.335938 C 351.460938 514.042969 359.710938 511.832031 363.425781 505.40625 C 365.21875 502.289062 365.699219 498.660156 364.765625 495.191406 C 363.839844 491.714844 361.609375 488.816406 358.496094 487.015625 C 352.066406 483.300781 343.816406 485.515625 340.105469 491.945312 C 336.398438 498.371094 338.605469 506.621094 345.035156 510.335938 Z M 351.699219 539.050781 C 344.847656 539.050781 337.914062 537.308594 331.574219 533.648438 C 312.289062 522.515625 305.65625 497.765625 316.789062 478.480469 C 327.925781 459.199219 352.671875 452.566406 371.957031 463.699219 C 381.296875 469.097656 387.980469 477.796875 390.773438 488.222656 C 393.566406 498.640625 392.132812 509.527344 386.738281 518.867188 C 379.265625 531.800781 365.664062 539.050781 351.699219 539.050781 " fill-opacity="1" fill-rule="nonzero"/><path fill="rgb(33.329773%, 64.309692%, 32.159424%)" d="M 434.332031 482.089844 L 420.871094 458.777344 L 444.191406 445.316406 L 457.652344 468.628906 L 434.332031 482.089844 " fill-opacity="1" fill-rule="nonzero"/><path fill="rgb(40.779114%, 73.728943%, 25.099182%)" d="M 459.433594 485.21875 C 457.148438 485.21875 454.839844 485.796875 452.722656 487.015625 C 449.609375 488.816406 447.378906 491.714844 446.453125 495.191406 C 445.519531 498.660156 446 502.289062 447.792969 505.40625 C 451.507812 511.832031 459.761719 514.042969 466.183594 510.335938 C 472.613281 506.621094 474.820312 498.371094 471.113281 491.945312 C 468.621094 487.632812 464.085938 485.21875 459.433594 485.21875 Z M 459.519531 539.050781 C 445.550781 539.050781 431.953125 531.808594 424.480469 518.867188 C 419.089844 509.527344 417.65625 498.640625 420.449219 488.222656 C 423.238281 477.796875 429.921875 469.097656 439.261719 463.699219 C 458.546875 452.566406 483.292969 459.199219 494.429688 478.480469 C 505.5625 497.765625 498.929688 522.515625 479.644531 533.648438 C 473.304688 537.308594 466.367188 539.050781 459.519531 539.050781 " fill-opacity="1" fill-rule="nonzero"/><g clip-path="url(#id1)"><path fill="rgb(90.979004%, 25.099182%, 25.878906%)" d="M 405.621094 742.152344 C 322.382812 742.152344 246.191406 711.929688 187.449219 661.851562 L 661.859375 187.449219 C 711.929688 246.191406 742.152344 322.382812 742.152344 405.621094 C 742.152344 591.488281 591.488281 742.152344 405.621094 742.152344 Z M 69.09375 405.621094 C 69.09375 219.753906 219.753906 69.09375 405.621094 69.09375 C 488.859375 69.09375 565.054688 99.3125 623.792969 149.386719 L 149.386719 623.792969 C 99.3125 565.054688 69.09375 488.859375 69.09375 405.621094 Z M 405.621094 15.246094 C 190.027344 15.246094 15.246094 190.027344 15.246094 405.621094 C 15.246094 621.21875 190.027344 795.996094 405.621094 795.996094 C 621.21875 795.996094 795.996094 621.21875 795.996094 405.621094 C 795.996094 190.027344 621.21875 15.246094 405.621094 15.246094 " fill-opacity="1" fill-rule="nonzero"/></g></svg>